<svg width="253" height="41" viewBox="0 0 253 41" fill="none" xmlns="http://www.w3.org/2000/svg">
<path d="M206.998 39.812V12.036H212.878L213.494 16.684H213.718C214.576 14.892 215.771 13.5667 217.302 12.708C218.832 11.812 220.587 11.364 222.566 11.364C223.984 11.364 225.272 11.5693 226.43 11.98C227.587 12.3533 228.614 12.9507 229.51 13.772C230.406 14.556 231.134 15.6013 231.694 16.908H231.918C232.926 15.116 234.214 13.7533 235.782 12.82C237.35 11.8493 239.31 11.364 241.662 11.364C243.79 11.364 245.619 11.8493 247.15 12.82C248.718 13.7533 249.931 15.172 250.79 17.076C251.686 18.9427 252.134 21.2573 252.134 24.02V39.812H245.47V24.692C245.47 22.228 244.984 20.3427 244.014 19.036C243.043 17.692 241.512 17.02 239.422 17.02C238.152 17.02 237.014 17.3 236.006 17.86C235.035 18.42 234.27 19.2787 233.71 20.436C233.187 21.556 232.926 22.9747 232.926 24.692V39.812H226.206V24.692C226.206 22.228 225.72 20.3427 224.75 19.036C223.779 17.692 222.304 17.02 220.326 17.02C219.131 17.02 218.03 17.356 217.022 18.028C216.051 18.7 215.248 19.6707 214.614 20.94C214.016 22.172 213.718 23.684 213.718 25.476V39.812H206.998Z" fill="#0D0D0D"/>
<path d="M188.638 39.812V12.036H194.406L194.966 18.084H195.19C196.049 16.1427 196.945 14.6867 197.878 13.716C198.849 12.7453 199.95 12.1107 201.182 11.812C202.414 11.5133 203.852 11.364 205.494 11.364V18.42H203.702C202.358 18.42 201.145 18.588 200.062 18.924C199.017 19.26 198.14 19.764 197.43 20.436C196.758 21.0707 196.236 21.9107 195.862 22.956C195.526 23.964 195.358 25.196 195.358 26.652V39.812H188.638Z" fill="#0D0D0D"/>
<path d="M171.793 40.484C169.143 40.484 166.753 39.868 164.625 38.636C162.497 37.404 160.799 35.7053 159.529 33.54C158.297 31.3373 157.681 28.7987 157.681 25.924C157.681 23.0493 158.297 20.5107 159.529 18.308C160.799 16.1053 162.497 14.4067 164.625 13.212C166.791 11.98 169.199 11.364 171.849 11.364C174.537 11.364 176.945 11.98 179.073 13.212C181.201 14.4067 182.881 16.1053 184.113 18.308C185.383 20.5107 186.017 23.0493 186.017 25.924C186.017 28.7987 185.383 31.3373 184.113 33.54C182.881 35.7053 181.183 37.404 179.017 38.636C176.889 39.868 174.481 40.484 171.793 40.484ZM171.793 34.94C173.137 34.94 174.351 34.604 175.433 33.932C176.553 33.26 177.449 32.2707 178.121 30.964C178.831 29.62 179.185 27.94 179.185 25.924C179.185 23.908 178.849 22.228 178.177 20.884C177.505 19.54 176.609 18.5507 175.489 17.916C174.369 17.244 173.175 16.908 171.905 16.908C170.599 16.908 169.385 17.244 168.265 17.916C167.145 18.5507 166.231 19.54 165.521 20.884C164.849 22.228 164.513 23.908 164.513 25.924C164.513 27.94 164.849 29.62 165.521 30.964C166.231 32.2707 167.127 33.26 168.209 33.932C169.329 34.604 170.524 34.94 171.793 34.94Z" fill="#0D0D0D"/>
<path d="M143.878 39.8121V9.62806C143.878 7.46273 144.233 5.72673 144.942 4.42006C145.689 3.07606 146.753 2.10539 148.134 1.50806C149.516 0.910728 151.158 0.612061 153.062 0.612061H156.086V6.10006H154.07C152.838 6.10006 151.942 6.36139 151.382 6.88406C150.86 7.40673 150.598 8.28406 150.598 9.51606V39.8121H143.878ZM139.958 17.3001V12.0361H156.702V17.3001H139.958Z" fill="#0D0D0D"/>
<path d="M124.793 40.484C122.143 40.484 119.753 39.868 117.625 38.636C115.497 37.404 113.799 35.7053 112.529 33.54C111.297 31.3373 110.681 28.7987 110.681 25.924C110.681 23.0493 111.297 20.5107 112.529 18.308C113.799 16.1053 115.497 14.4067 117.625 13.212C119.791 11.98 122.199 11.364 124.849 11.364C127.537 11.364 129.945 11.98 132.073 13.212C134.201 14.4067 135.881 16.1053 137.113 18.308C138.383 20.5107 139.017 23.0493 139.017 25.924C139.017 28.7987 138.383 31.3373 137.113 33.54C135.881 35.7053 134.183 37.404 132.017 38.636C129.889 39.868 127.481 40.484 124.793 40.484ZM124.793 34.94C126.137 34.94 127.351 34.604 128.433 33.932C129.553 33.26 130.449 32.2707 131.121 30.964C131.831 29.62 132.185 27.94 132.185 25.924C132.185 23.908 131.849 22.228 131.177 20.884C130.505 19.54 129.609 18.5507 128.489 17.916C127.369 17.244 126.175 16.908 124.905 16.908C123.599 16.908 122.385 17.244 121.265 17.916C120.145 18.5507 119.231 19.54 118.521 20.884C117.849 22.228 117.513 23.908 117.513 25.924C117.513 27.94 117.849 29.62 118.521 30.964C119.231 32.2707 120.127 33.26 121.209 33.932C122.329 34.604 123.524 34.94 124.793 34.94Z" fill="#0D0D0D"/>
<path d="M93.7634 39.812V12.036H99.5314L100.091 18.084H100.315C101.174 16.1427 102.07 14.6867 103.003 13.716C103.974 12.7453 105.075 12.1107 106.307 11.812C107.539 11.5133 108.977 11.364 110.619 11.364V18.42H108.827C107.483 18.42 106.27 18.588 105.187 18.924C104.142 19.26 103.265 19.764 102.555 20.436C101.883 21.0707 101.361 21.9107 100.987 22.956C100.651 23.964 100.483 25.196 100.483 26.652V39.812H93.7634Z" fill="#0D0D0D"/>
<path d="M74.2823 40.484C72.0423 40.484 70.1197 40.0173 68.5143 39.084C66.909 38.1133 65.677 36.6947 64.8183 34.828C63.9597 32.924 63.5303 30.5907 63.5303 27.828V12.036H70.2503V27.156C70.2503 29.62 70.7543 31.524 71.7623 32.868C72.7703 34.1747 74.3383 34.828 76.4663 34.828C77.8477 34.828 79.061 34.492 80.1063 33.82C81.189 33.148 82.029 32.196 82.6263 30.964C83.261 29.6947 83.5783 28.164 83.5783 26.372V12.036H90.2983V39.812H84.5303L83.9703 35.388H83.7463C82.8503 36.956 81.6183 38.2067 80.0503 39.14C78.5197 40.036 76.597 40.484 74.2823 40.484Z" fill="#0D0D0D"/>
<path d="M47.68 40.484C44.88 40.484 42.3974 39.8867 40.232 38.692C38.104 37.46 36.424 35.78 35.192 33.652C33.9974 31.4867 33.4 28.9667 33.4 26.092C33.4 23.18 33.9974 20.6227 35.192 18.42C36.3867 16.2173 38.048 14.5 40.176 13.268C42.3414 11.9987 44.8614 11.364 47.736 11.364C50.4614 11.364 52.8507 11.98 54.904 13.212C56.9947 14.4067 58.6 16.012 59.72 18.028C60.8774 20.044 61.456 22.3213 61.456 24.86C61.456 25.2333 61.456 25.644 61.456 26.092C61.456 26.54 61.4187 27.0253 61.344 27.548H38.272V23.236H54.68C54.568 21.1827 53.8587 19.5773 52.552 18.42C51.2454 17.2253 49.6214 16.628 47.68 16.628C46.2987 16.628 45.0107 16.9453 43.816 17.58C42.6587 18.1773 41.7254 19.1107 41.016 20.38C40.344 21.612 40.008 23.1987 40.008 25.14V26.764C40.008 28.4813 40.344 29.956 41.016 31.188C41.688 32.42 42.6027 33.372 43.76 34.044C44.9547 34.6787 46.2427 34.996 47.624 34.996C49.1547 34.996 50.4427 34.66 51.488 33.988C52.5334 33.2787 53.3174 32.3267 53.84 31.132H60.672C60.1494 32.924 59.272 34.5294 58.04 35.948C56.8454 37.3294 55.3707 38.4307 53.616 39.252C51.8614 40.0733 49.8827 40.484 47.68 40.484Z" fill="#0D0D0D"/>
<path d="M29.2532 26.0231C29.2063 33.5983 23.3978 39.8056 15.9885 40.484L14.7932 40.484L14.7932 26.0231L29.2532 26.0231Z" fill="#6A0033"/>
<path d="M29.2532 11.5607C29.2063 19.1358 23.3978 25.3432 15.9885 26.0216L14.7932 26.0216L14.7932 11.5607L29.2532 11.5607Z" fill="#7A003B"/>
<path d="M14.7932 26.0221C14.7465 33.5959 8.93975 39.8025 1.53247 40.483L0.332275 40.483L0.332275 26.0221L14.7932 26.0221Z" fill="#6A0033"/>
<path d="M0.332275 26.0226C0.378932 18.4487 6.1857 12.2421 13.593 11.5616L14.7932 11.5616L14.7932 26.0226L0.332275 26.0226Z" fill="#6A0033"/>
</svg>
